<svg width="99" height="99" viewBox="0 0 99 99" fill="none" xmlns="http://www.w3.org/2000/svg">
<path d="M24 49.3333C24 63.3267 35.3413 74.668 49.3333 74.668C63.3253 74.668 74.6667 63.3267 74.6667 49.3333C74.6667 35.3413 63.3253 24 49.3333 24C35.3413 24 24 35.3413 24 49.3333Z" fill="white"/>
<path d="M54.6667 10.6654C54.6667 5.01736 49.872 0.166705 49.3534 0.0067049C49.3494 0.00403823 49.3453 -8.34465e-07 49.34 -8.34465e-07C49.3387 -8.34465e-07 49.336 0.00136635 49.3333 0.00136635C49.332 0.00136635 49.3294 -8.34465e-07 49.328 -8.34465e-07C49.3227 -8.34465e-07 49.3187 0.00403823 49.3147 0.0067049C48.796 0.166705 44 5.01736 44 10.6654C44 14.552 47.0334 15.9907 49.3214 15.9987C49.3227 15.9987 49.3254 16 49.328 16C49.3294 16 49.332 16 49.3333 16C49.336 16 49.3387 16 49.34 16C49.344 16 49.3453 15.9987 49.348 15.9987C51.6347 15.9907 54.6667 14.552 54.6667 10.6654Z" fill="white"/>
<path d="M44 88.0027C44 93.6493 48.796 98.5013 49.3147 98.6613C49.3187 98.664 49.3227 98.668 49.328 98.668C49.3294 98.668 49.332 98.6667 49.3333 98.6667C49.336 98.6667 49.3387 98.668 49.34 98.668C49.3453 98.668 49.3494 98.664 49.3534 98.6613C49.872 98.5013 54.6667 93.6493 54.6667 88.0027C54.6667 84.116 51.6347 82.6773 49.3467 82.6693C49.3453 82.6693 49.3427 82.668 49.34 82.668C49.3387 82.668 49.336 82.668 49.3333 82.668C49.3307 82.668 49.3294 82.668 49.328 82.668C49.324 82.668 49.3227 82.6693 49.32 82.6693C47.0334 82.6773 44 84.116 44 88.0027" fill="white"/>
<path d="M88.0026 54.668C93.6493 54.668 98.5013 49.872 98.6613 49.352C98.664 49.348 98.668 49.344 98.668 49.34C98.668 49.34 98.6666 49.336 98.6666 49.3347C98.6666 49.332 98.668 49.3294 98.668 49.3267C98.668 49.3227 98.664 49.3187 98.6613 49.3147C98.5013 48.7947 93.6493 44.0014 88.0026 44.0014C84.116 44.0014 82.6773 47.0334 82.6693 49.3214C82.6693 49.3227 82.668 49.324 82.668 49.3267C82.668 49.3294 82.668 49.332 82.668 49.3347C82.668 49.3374 82.668 49.3387 82.668 49.34C82.668 49.344 82.6693 49.344 82.6693 49.3467C82.6773 51.6333 84.116 54.668 88.0026 54.668" fill="white"/>
<path d="M10.6653 44.0014C5.01867 44.0014 0.166673 48.7947 0.00667318 49.3147C0.00400651 49.3187 0 49.3227 0 49.3267C0 49.3294 0.00133464 49.332 0.00133464 49.3347C0.00133464 49.336 0 49.34 0 49.34C0 49.344 0.00400651 49.348 0.00667318 49.352C0.166673 49.872 5.01867 54.668 10.6653 54.668C14.552 54.668 15.9907 51.6333 15.9987 49.3467C15.9987 49.344 16 49.3427 16 49.34C16 49.3387 16 49.336 16 49.3347C16 49.332 16 49.3294 16 49.3267C16 49.324 15.9987 49.3227 15.9987 49.32C15.9907 47.0334 14.552 44.0014 10.6653 44.0014Z" fill="white"/>
<path d="M80.4481 25.7613C84.4414 21.7693 84.4815 14.948 84.2268 14.4667C84.2255 14.4627 84.2254 14.456 84.2228 14.4547C84.2214 14.4533 84.2188 14.452 84.2174 14.4507C84.2161 14.4494 84.2148 14.4454 84.2134 14.4454C84.2108 14.4414 84.2054 14.4413 84.2001 14.4413C83.7201 14.1853 76.8988 14.2267 72.9054 18.22C70.1574 20.968 71.2841 24.1293 72.8961 25.752C72.8974 25.7533 72.8988 25.7561 72.9001 25.7587C72.9014 25.7601 72.9028 25.7614 72.9054 25.7627C72.9068 25.7654 72.9081 25.7667 72.9094 25.768C72.9121 25.7694 72.9134 25.7693 72.9148 25.772C74.5374 27.3827 77.7001 28.5107 80.4481 25.7613Z" fill="white"/>
<path d="M18.2202 72.904C14.2268 76.8987 14.1868 83.7199 14.4401 84.1999C14.4415 84.2039 14.4415 84.2106 14.4455 84.2133C14.4455 84.2146 14.4495 84.216 14.4508 84.2173C14.4521 84.2187 14.4535 84.2227 14.4548 84.2227C14.4575 84.2267 14.4628 84.2266 14.4681 84.2266C14.9481 84.4813 21.7695 84.4413 25.7628 80.448C28.5108 77.6987 27.3841 74.5373 25.7721 72.9147C25.7708 72.912 25.7695 72.9106 25.7681 72.908C25.7668 72.9066 25.7641 72.9053 25.7628 72.904C25.7615 72.9013 25.7602 72.9 25.7588 72.8986C25.7562 72.8973 25.7548 72.8973 25.7522 72.896C24.1308 71.2853 20.9682 70.1573 18.2202 72.904Z" fill="white"/>
<path d="M72.9054 80.4493C76.8988 84.4413 83.7201 84.4813 84.2001 84.2266C84.2054 84.2266 84.2108 84.2267 84.2148 84.2227C84.2148 84.2227 84.2161 84.2187 84.2174 84.2173C84.2188 84.216 84.2214 84.2146 84.2228 84.2133C84.2254 84.2106 84.2255 84.2039 84.2268 84.1999C84.4815 83.7199 84.4401 76.8986 80.4481 72.9053C77.6988 70.1573 74.5374 71.2853 72.9134 72.8973C72.9134 72.8973 72.9121 72.8973 72.9094 72.8986C72.9081 72.9 72.9068 72.9026 72.9041 72.904C72.9028 72.9066 72.9014 72.9066 72.9001 72.9079C72.8974 72.9106 72.8974 72.912 72.8961 72.9147C71.2841 74.5373 70.1574 77.7 72.9054 80.4493" fill="white"/>
<path d="M25.7615 18.22C21.7695 14.228 14.9481 14.1853 14.4681 14.4413C14.4628 14.4413 14.4575 14.4413 14.4548 14.444C14.4535 14.4467 14.4522 14.4494 14.4495 14.4507C14.4495 14.452 14.4455 14.4547 14.4455 14.4547C14.4415 14.456 14.4415 14.4627 14.4401 14.4667C14.1868 14.948 14.2268 21.7693 18.2188 25.7627C20.9682 28.5107 24.1308 27.3827 25.7522 25.772C25.7548 25.7693 25.7575 25.7693 25.7588 25.7667C25.7602 25.7667 25.7615 25.764 25.7628 25.764C25.7641 25.7613 25.7668 25.76 25.7681 25.7573C25.7708 25.756 25.7708 25.7533 25.7721 25.752C27.3841 24.1293 28.5108 20.968 25.7615 18.22" fill="white"/>
</svg>
