<svg width="123" height="114" viewBox="0 0 123 114" fill="none" xmlns="http://www.w3.org/2000/svg">
<path d="M56.788 96.3613L59.5959 98.244C63.9933 101.191 69.1253 102.749 74.4399 102.749C81.0293 102.749 87.3599 100.325 92.2653 95.9214L94.0946 94.2787L96.5319 94.604C97.2346 94.6987 97.8013 94.7427 98.3146 94.7427C105.677 94.7427 111.668 88.752 111.668 81.388C111.668 75.5334 107.919 70.4173 102.34 68.656L99.9959 67.9147L99.036 65.6507C94.844 55.7507 85.1906 49.3533 74.4399 49.3533C66.1959 49.3533 58.5413 53.0827 53.4346 59.584L51.3533 62.2347L48.0666 61.4907C46.568 61.1507 45.0799 60.9787 43.6399 60.9787C32.6199 60.9787 23.6546 69.944 23.6546 80.9667C23.6546 91.988 32.6199 100.955 43.6399 100.955C47.2279 100.955 50.772 99.9667 53.888 98.1L56.788 96.3613ZM74.4399 113.408C68.0973 113.408 61.9359 111.821 56.4399 108.791C52.4253 110.645 48.0586 111.613 43.6399 111.613C26.7426 111.613 12.9946 97.8653 12.9946 80.9667C12.9946 64.0667 26.7426 50.32 43.6399 50.32C44.8053 50.32 45.9826 50.3907 47.1653 50.5307C54.22 42.9707 63.9919 38.6934 74.4399 38.6934C88.6893 38.6934 101.564 46.728 107.865 59.3533C116.609 63.1213 122.328 71.6934 122.328 81.388C122.328 94.6307 111.556 105.401 98.3146 105.401C98.0666 105.401 97.8159 105.396 97.5626 105.387C90.9879 110.577 82.8653 113.408 74.4399 113.408" fill="white"/>
<path d="M54.6667 10.6653C54.6667 5.01863 49.872 0.16664 49.352 0.00663979C49.348 0.00397312 49.344 -8.34465e-07 49.34 -8.34465e-07C49.3386 -8.34465e-07 49.3347 0.00130125 49.3333 0.00130125C49.332 0.00130125 49.328 -8.34465e-07 49.3267 -8.34465e-07C49.3227 -8.34465e-07 49.3186 0.00397312 49.3146 0.00663979C48.7946 0.16664 44 5.01863 44 10.6653C44 14.552 47.0333 15.992 49.32 15.9986C49.3227 15.9986 49.324 16 49.3267 16C49.3293 16 49.332 16 49.3333 16C49.336 16 49.3373 16 49.34 16C49.3426 16 49.344 15.9986 49.3466 15.9986C51.6333 15.992 54.6667 14.552 54.6667 10.6653Z" fill="white"/>
<path d="M10.6653 44.0013C5.01733 44.0013 0.166639 48.796 0.00530599 49.316C0.00263932 49.32 0 49.324 0 49.3267C0 49.3294 0.00130208 49.332 0.00130208 49.3346C0.00130208 49.336 0 49.34 0 49.34C0 49.3453 0.00263932 49.3493 0.00530599 49.3533C0.166639 49.8733 5.01733 54.668 10.6653 54.668C14.552 54.668 15.9907 51.6346 15.9987 49.348C15.9987 49.3453 16 49.3426 16 49.34C16 49.3386 16 49.336 16 49.3346C16 49.332 16 49.3294 16 49.3267C16 49.3254 15.9987 49.324 15.9987 49.3214C15.9907 47.0347 14.552 44.0013 10.6653 44.0013Z" fill="white"/>
<path d="M80.4468 25.7627C84.4415 21.7694 84.4801 14.948 84.2267 14.468C84.2254 14.464 84.2254 14.4574 84.2228 14.4547C84.2214 14.4534 84.2188 14.452 84.2174 14.4507C84.2161 14.4494 84.2148 14.4454 84.2135 14.4454C84.2095 14.4414 84.2041 14.4414 84.2001 14.4414C83.7201 14.1867 76.8974 14.2267 72.9054 18.22C70.1574 20.9694 71.2841 24.1307 72.8961 25.7534C72.8974 25.7547 72.8974 25.7574 72.8987 25.7601C72.9014 25.7614 72.9027 25.7627 72.9041 25.764C72.9054 25.7667 72.9067 25.768 72.9094 25.7694C72.9107 25.7694 72.9134 25.7694 72.9148 25.7721C74.5374 27.3827 77.6988 28.5107 80.4468 25.7627" fill="white"/>
<path d="M25.7616 18.22C21.7683 14.228 14.947 14.1867 14.467 14.4413C14.463 14.4413 14.4576 14.4414 14.4536 14.444C14.4523 14.4467 14.4509 14.4493 14.4496 14.4507C14.4483 14.452 14.4456 14.4547 14.4456 14.4547C14.4416 14.4574 14.4416 14.464 14.4403 14.468C14.1869 14.948 14.2256 21.7693 18.2189 25.764C20.9669 28.512 24.1296 27.3827 25.7523 25.772C25.7536 25.7693 25.7563 25.7693 25.759 25.768C25.7603 25.768 25.7616 25.7653 25.763 25.7653C25.7643 25.7626 25.7656 25.7613 25.7683 25.7587C25.7696 25.7573 25.7696 25.7547 25.7723 25.7533C27.3829 24.1307 28.5096 20.9693 25.7616 18.22" fill="white"/>
<path d="M51.0106 52.2786C61.9346 45.3066 67.8333 42.392 73.4546 41.6027C70.1853 31.3933 60.6267 24 49.3333 24C35.3413 24 24 35.3413 24 49.3333C24 53.3107 24.9413 57.056 26.5733 60.4053C29.7706 56.7693 36.6666 52.1173 51.0106 52.2786Z" fill="white"/>
</svg>
