<svg width="128" height="115" viewBox="0 0 128 115" fill="none" xmlns="http://www.w3.org/2000/svg">
<path fill-rule="evenodd" clip-rule="evenodd" d="M75.0742 0C63.1343 6.32104 55 18.8713 55 33.3215C55 35.7557 55.231 38.136 55.6719 40.4418C47.4395 41.7138 39.9067 45.6915 34.1704 51.8387C32.9893 51.6973 31.8105 51.6267 30.6465 51.6267C13.748 51.6267 0 65.3734 0 82.2734C0 99.1721 13.748 112.92 30.6465 112.92C35.064 112.92 39.4307 111.952 43.4453 110.097C48.9399 113.128 55.1025 114.715 61.4453 114.715C69.8721 114.715 77.9932 111.884 84.5679 106.695C84.8228 106.703 85.0718 106.708 85.3213 106.708C98.5601 106.708 109.333 95.9374 109.333 82.696C109.333 77.6245 107.769 72.8605 105.025 68.9304C114.936 65.4944 122.968 58.0376 127.17 48.5116C122.251 50.8992 116.756 52.2342 110.958 52.2342C89.9429 52.2342 72.9067 34.6969 72.9067 13.0635C72.9067 8.48279 73.6704 4.08582 75.0742 0ZM46.6025 99.5507L43.7935 97.668L40.8931 99.4067C37.7773 101.273 34.2349 102.261 30.6465 102.261C19.6255 102.261 10.6587 93.2947 10.6587 82.2734C10.6587 71.2521 19.6255 62.2867 30.6465 62.2867C32.0854 62.2867 33.5732 62.4587 35.0718 62.7974L38.3589 63.5414L40.4399 60.8907C45.5479 54.3907 53.2026 50.6613 61.4453 50.6613C72.1958 50.6613 81.8491 57.0574 86.0425 66.9574L87 69.2214L89.3452 69.9627C94.9253 71.7241 98.6733 76.84 98.6733 82.696C98.6733 90.0587 92.6826 96.0494 85.3213 96.0494C84.9204 96.0494 84.4878 96.0226 83.9849 95.9667C83.8423 95.9509 83.6938 95.9326 83.5386 95.912L81.1011 95.5854L79.2705 97.228C74.3652 101.632 68.0361 104.056 61.4453 104.056C56.1309 104.056 50.9976 102.497 46.6025 99.5507Z" fill="white"/>
</svg>
