<svg width="110" height="75" viewBox="0 0 110 75" fill="none" xmlns="http://www.w3.org/2000/svg">
<path d="M43.7933 57.668L46.6027 59.5507C50.9973 62.4973 56.1306 64.056 61.4453 64.056C68.036 64.056 74.3653 61.632 79.2706 57.228L81.1013 55.5854L83.5387 55.912C84.24 56.0053 84.8066 56.0494 85.3213 56.0494C92.6826 56.0494 98.6733 50.0587 98.6733 42.696C98.6733 36.84 94.9253 31.724 89.3453 29.9627L87 29.2214L86.0426 26.9574C81.8493 17.0574 72.196 10.6613 61.4453 10.6613C53.2026 10.6613 45.548 14.3907 40.44 20.8907L38.3587 23.5414L35.072 22.7973C33.5733 22.4587 32.0853 22.2867 30.6467 22.2867C19.6253 22.2867 10.6587 31.2521 10.6587 42.2734C10.6587 53.2947 19.6253 62.2613 30.6467 62.2613C34.2347 62.2613 37.7773 61.2734 40.8933 59.4067L43.7933 57.668ZM61.4453 74.7147C55.1026 74.7147 48.94 73.128 43.4453 70.0973C39.4306 71.952 35.064 72.92 30.6467 72.92C13.748 72.92 0 59.1721 0 42.2734C0 25.3734 13.748 11.6267 30.6467 11.6267C31.8107 11.6267 32.9893 11.6974 34.1706 11.8387C41.2253 4.27869 50.9973 1.66604e-05 61.4453 1.66604e-05C75.696 1.66604e-05 88.5693 8.03334 94.872 20.6587C103.615 24.428 109.333 33 109.333 42.696C109.333 55.9374 98.5599 66.708 85.3213 66.708C85.072 66.708 84.8226 66.7027 84.568 66.6947C77.9933 71.884 69.872 74.7147 61.4453 74.7147" fill="white"/>
</svg>
