<svg width="143" height="136" viewBox="0 0 143 136" fill="none" xmlns="http://www.w3.org/2000/svg">
<path d="M43.7921 74.668L46.6014 76.552C50.9974 79.4987 56.1307 81.056 61.444 81.056C68.0333 81.056 74.3654 78.632 79.2694 74.228L81.0987 72.5866L83.5361 72.912C84.2401 73.0053 84.8054 73.0506 85.3188 73.0506C92.6828 73.0506 98.6707 67.0586 98.6707 59.696C98.6707 53.84 94.924 48.724 89.344 46.9626L87 46.2226L86.0414 43.9573C81.8494 34.0573 72.196 27.6626 61.444 27.6626C53.2 27.6626 45.5453 31.3907 40.44 37.8907L38.3574 40.5426L35.0707 39.7973C33.5734 39.4587 32.084 39.2866 30.6453 39.2866C19.6253 39.2866 10.6587 48.252 10.6587 59.2747C10.6587 70.2947 19.6253 79.2626 30.6453 79.2626C34.2333 79.2626 37.776 78.2746 40.8934 76.4066L43.7921 74.668ZM61.444 91.716C55.1013 91.716 48.94 90.128 43.444 87.0986C39.4293 88.952 35.0626 89.9213 30.6453 89.9213C13.748 89.9213 0 76.172 0 59.2747C0 42.3747 13.748 28.6267 30.6453 28.6267C31.8093 28.6267 32.9867 28.6987 34.1694 28.8387C41.2241 21.2787 50.9973 17 61.444 17C75.6947 17 88.5681 25.0347 94.8694 37.66C103.617 41.4294 109.337 50 109.337 59.696C109.337 72.9386 98.5641 83.7093 85.3188 83.7093C85.0708 83.7093 84.8201 83.704 84.5681 83.6946C77.9921 88.8853 69.8693 91.716 61.444 91.716" fill="white"/>
<path d="M55.0692 114.651C52.1238 114.651 49.7358 117.039 49.7358 119.984V130.488C49.7358 133.435 52.1238 135.821 55.0692 135.821C58.0145 135.821 60.4025 133.435 60.4025 130.488V119.984C60.4025 117.039 58.0145 114.651 55.0692 114.651Z" fill="white"/>
<path d="M55.0692 85.48C52.1238 85.48 49.7358 87.868 49.7358 90.8133V101.317C49.7358 104.264 52.1238 106.651 55.0692 106.651C58.0145 106.651 60.4025 104.264 60.4025 101.317V90.8133C60.4025 87.868 58.0145 85.48 55.0692 85.48Z" fill="white"/>
<path d="M31.0692 104.147C28.1238 104.147 25.7358 106.535 25.7358 109.48V119.984C25.7358 122.931 28.1238 125.317 31.0692 125.317C34.0145 125.317 36.4025 122.931 36.4025 119.984V109.48C36.4025 106.535 34.0145 104.147 31.0692 104.147Z" fill="white"/>
<path d="M79.0692 104.147C76.1238 104.147 73.7358 106.535 73.7358 109.48V119.984C73.7358 122.931 76.1238 125.317 79.0692 125.317C82.0145 125.317 84.4025 122.931 84.4025 119.984V109.48C84.4025 106.535 82.0145 104.147 79.0692 104.147Z" fill="white"/>
<path d="M25.7358 85.488V90.8133C25.7358 93.76 28.1238 96.1467 31.0692 96.1467C34.0145 96.1467 36.4025 93.76 36.4025 90.8133V87.1453C32.8745 87.7346 29.4692 87.1467 25.7358 85.488" fill="white"/>
<path d="M73.7358 85.8786V90.8133C73.7358 93.76 76.1238 96.1467 79.0692 96.1467C82.0145 96.1467 84.4025 93.76 84.4025 90.8133V80.8947C81.6385 82.1973 76.9398 84.4026 73.7358 85.8786Z" fill="white"/>
<path fill-rule="evenodd" clip-rule="evenodd" d="M108.253 60.2338C109.688 59.3687 111.049 58.3643 112.314 57.228L114.145 55.5854L116.582 55.912C117.284 56.0053 117.85 56.0493 118.365 56.0493C125.726 56.0493 131.717 50.0587 131.717 42.696C131.717 36.84 127.969 31.724 122.389 29.9627L120.044 29.2214L119.086 26.9574C114.893 17.0574 105.24 10.6613 94.4889 10.6613C86.2463 10.6613 78.5916 14.3907 73.4836 20.8907L72.606 22.0083C68.7757 20.6989 64.6922 20 60.4889 20C51.3546 20 42.7369 23.2704 36 29.1447C40.9261 18.796 51.4866 11.6267 63.6903 11.6267C64.8543 11.6267 66.0329 11.6973 67.2143 11.8387C74.2689 4.27867 84.041 0 94.4889 0C108.74 0 121.613 8.03333 127.916 20.6587C136.658 24.428 142.377 33 142.377 42.696C142.377 55.9374 131.604 66.708 118.365 66.708C118.116 66.708 117.866 66.7027 117.612 66.6947C114.149 69.4279 110.257 71.5068 106.117 72.8624C107.567 69.7736 108.377 66.3278 108.377 62.696C108.377 61.8663 108.335 61.0447 108.253 60.2338Z" fill="#785656"/>
<path d="M43.7933 74.668L46.6027 76.5507C50.9973 79.4973 56.1306 81.056 61.4453 81.056C68.036 81.056 74.3653 78.632 79.2706 74.228L81.1013 72.5854L83.5387 72.912C84.24 73.0053 84.8066 73.0494 85.3213 73.0494C92.6826 73.0494 98.6733 67.0587 98.6733 59.696C98.6733 53.84 94.9253 48.724 89.3453 46.9627L87 46.2214L86.0426 43.9574C81.8493 34.0574 72.196 27.6613 61.4453 27.6613C53.2026 27.6613 45.548 31.3907 40.44 37.8907L38.3587 40.5414L35.072 39.7973C33.5733 39.4587 32.0853 39.2867 30.6467 39.2867C19.6253 39.2867 10.6587 48.2521 10.6587 59.2734C10.6587 70.2947 19.6253 79.2613 30.6467 79.2613C34.2347 79.2613 37.7773 78.2734 40.8933 76.4067L43.7933 74.668ZM61.4453 91.7147C55.1026 91.7147 48.94 90.128 43.4453 87.0973C39.4306 88.952 35.064 89.92 30.6467 89.92C13.748 89.92 0 76.1721 0 59.2734C0 42.3734 13.748 28.6267 30.6467 28.6267C31.8107 28.6267 32.9893 28.6974 34.1706 28.8387C41.2253 21.2787 50.9973 17 61.4453 17C75.696 17 88.5693 25.0333 94.872 37.6587C103.615 41.428 109.333 50 109.333 59.696C109.333 72.9374 98.5599 83.708 85.3213 83.708C85.072 83.708 84.8226 83.7027 84.568 83.6947C77.9933 88.884 69.872 91.7147 61.4453 91.7147" fill="white"/>
</svg>
