<svg width="128" height="152" viewBox="0 0 128 152" fill="none" xmlns="http://www.w3.org/2000/svg">
<path d="M61.2604 146.221C61.2604 149.168 58.8711 151.555 55.9271 151.555C52.9817 151.555 50.5938 149.168 50.5938 146.221C50.5938 143.276 52.9817 140.888 55.9271 140.888C58.8711 140.888 61.2604 143.276 61.2604 146.221Z" fill="white"/>
<path d="M43.7934 97.668L46.6013 99.5507C50.9986 102.497 56.1307 104.056 61.444 104.056C68.036 104.056 74.3667 101.632 79.2694 97.228L81.1 95.5853L83.5374 95.9107C84.24 96.0053 84.8067 96.0493 85.3187 96.0493C92.6841 96.0493 98.6733 90.0587 98.6733 82.6947C98.6733 76.84 94.9253 71.724 89.3453 69.9627L87.0013 69.2213L86.0414 66.9574C81.8507 57.0574 72.196 50.6613 61.444 50.6613C53.2027 50.6613 45.5453 54.3907 40.44 60.8907L38.3587 63.5413L35.072 62.7973C33.5747 62.4587 32.0853 62.2867 30.6467 62.2867C19.6253 62.2867 10.66 71.2507 10.66 82.2734C10.66 93.2947 19.6253 102.261 30.6467 102.261C34.2333 102.261 37.7774 101.273 40.8934 99.4067L43.7934 97.668ZM61.444 114.715C55.1027 114.715 48.9413 113.128 43.444 110.097C39.4307 111.952 35.064 112.92 30.6467 112.92C13.748 112.92 0 99.172 0 82.2734C0 65.3734 13.748 51.6267 30.6467 51.6267C31.8107 51.6267 32.988 51.6973 34.1707 51.8387C41.2254 44.2787 50.9973 40 61.444 40C75.6947 40 88.5694 48.0334 94.8707 60.6587C103.613 64.4281 109.333 73 109.333 82.6947C109.333 95.9373 98.5614 106.708 85.3187 106.708C85.0721 106.708 84.8214 106.703 84.5694 106.693C77.9934 111.884 69.8707 114.715 61.444 114.715" fill="white"/>
<path d="M61.2604 125.051C61.2604 127.997 58.8711 130.384 55.9271 130.384C52.9817 130.384 50.5938 127.997 50.5938 125.051C50.5938 122.105 52.9817 119.717 55.9271 119.717C58.8711 119.717 61.2604 122.105 61.2604 125.051Z" fill="white"/>
<path d="M38.1217 114.384C38.1217 117.331 35.7337 119.717 32.7884 119.717C29.8431 119.717 27.4551 117.331 27.4551 114.384C27.4551 111.439 29.8431 109.051 32.7884 109.051C35.7337 109.051 38.1217 111.439 38.1217 114.384Z" fill="white"/>
<path d="M85.2604 114.384C85.2604 117.331 82.8711 119.717 79.9271 119.717C76.9817 119.717 74.5938 117.331 74.5938 114.384C74.5938 111.439 76.9817 109.051 79.9271 109.051C82.8711 109.051 85.2604 111.439 85.2604 114.384Z" fill="white"/>
<path d="M38.1217 135.717C38.1217 138.664 35.7337 141.051 32.7884 141.051C29.8431 141.051 27.4551 138.664 27.4551 135.717C27.4551 132.772 29.8431 130.384 32.7884 130.384C35.7337 130.384 38.1217 132.772 38.1217 135.717Z" fill="white"/>
<path d="M85.2604 135.717C85.2604 138.664 82.8711 141.051 79.9271 141.051C76.9817 141.051 74.5938 138.664 74.5938 135.717C74.5938 132.772 76.9817 130.384 79.9271 130.384C82.8711 130.384 85.2604 132.772 85.2604 135.717Z" fill="white"/>
<path fill-rule="evenodd" clip-rule="evenodd" d="M75.0741 0C63.1345 6.32102 55 18.8713 55 33.3215C55 35.7558 55.2308 38.1361 55.6718 40.4418C47.4398 41.7138 39.9069 45.6915 34.1706 51.8387C32.9893 51.6974 31.8107 51.6267 30.6467 51.6267C13.748 51.6267 0 65.3734 0 82.2734C0 99.1721 13.748 112.92 30.6467 112.92C35.064 112.92 39.4306 111.952 43.4453 110.097C48.94 113.128 55.1026 114.715 61.4453 114.715C69.872 114.715 77.9933 111.884 84.568 106.695C84.8226 106.703 85.072 106.708 85.3213 106.708C98.56 106.708 109.333 95.9374 109.333 82.696C109.333 77.6245 107.769 72.8605 105.025 68.9305C114.936 65.4945 122.968 58.0376 127.17 48.5116C122.252 50.8992 116.756 52.2342 110.958 52.2342C89.9429 52.2342 72.9066 34.6969 72.9066 13.0635C72.9066 8.48282 73.6704 4.08579 75.0741 0ZM46.6027 99.5507L43.7933 97.668L40.8933 99.4067C37.7773 101.273 34.2347 102.261 30.6467 102.261C19.6253 102.261 10.6587 93.2947 10.6587 82.2734C10.6587 71.2521 19.6253 62.2867 30.6467 62.2867C32.0853 62.2867 33.5733 62.4587 35.072 62.7973L38.3587 63.5414L40.44 60.8907C45.548 54.3907 53.2026 50.6613 61.4453 50.6613C72.196 50.6613 81.8493 57.0574 86.0426 66.9574L87 69.2214L89.3453 69.9627C94.9253 71.724 98.6733 76.84 98.6733 82.696C98.6733 90.0587 92.6826 96.0494 85.3213 96.0494C84.8066 96.0494 84.24 96.0053 83.5387 95.912L81.1013 95.5854L79.2706 97.228C74.3653 101.632 68.036 104.056 61.4453 104.056C56.1306 104.056 50.9973 102.497 46.6027 99.5507Z" fill="white"/>
</svg>
