<svg width="110" height="106" viewBox="0 0 110 106" fill="none" xmlns="http://www.w3.org/2000/svg">
<path d="M82.5346 79.2426L52.98 43.3547L64.3146 79.2426H82.5346Z" fill="white"/>
<path d="M78.5347 100.163C78.5347 103.108 80.9227 105.496 83.868 105.496C86.8133 105.496 89.2013 103.108 89.2013 100.163C89.2013 97.2173 86.8133 94.8293 83.868 94.8293C80.9227 94.8293 78.5347 97.2173 78.5347 100.163Z" fill="white"/>
<path d="M73.2012 89.6573C73.2012 92.6026 75.5892 94.9906 78.5345 94.9906C81.4798 94.9906 83.8678 92.6026 83.8678 89.6573C83.8678 86.712 81.4798 84.324 78.5345 84.324C75.5892 84.324 73.2012 86.712 73.2012 89.6573Z" fill="white"/>
<path d="M40.0454 92.2426C40.0454 95.188 42.4334 97.576 45.3787 97.576C48.3241 97.576 50.7121 95.188 50.7121 92.2426C50.7121 89.2973 48.3241 86.9093 45.3787 86.9093C42.4334 86.9093 40.0454 89.2973 40.0454 92.2426Z" fill="white"/>
<path d="M34.7119 81.7373C34.7119 84.6826 37.0999 87.0706 40.0452 87.0706C42.9906 87.0706 45.3786 84.6826 45.3786 81.7373C45.3786 78.792 42.9906 76.404 40.0452 76.404C37.0999 76.404 34.7119 78.792 34.7119 81.7373Z" fill="white"/>
<path d="M92.6147 89.576C92.6147 92.5213 95.0027 94.9093 97.9481 94.9093C100.893 94.9093 103.281 92.5213 103.281 89.576C103.281 86.6307 100.893 84.2427 97.9481 84.2427C95.0027 84.2427 92.6147 86.6307 92.6147 89.576Z" fill="white"/>
<path d="M87.2812 79.0706C87.2812 82.016 89.6692 84.404 92.6146 84.404C95.5599 84.404 97.9479 82.016 97.9479 79.0706C97.9479 76.1253 95.5599 73.7373 92.6146 73.7373C89.6692 73.7373 87.2812 76.1253 87.2812 79.0706Z" fill="white"/>
<path d="M43.7933 57.668L46.6013 59.552C50.9987 62.4973 56.1306 64.056 61.4453 64.056C68.0346 64.056 74.3653 61.632 79.2706 57.228L81.1 55.5866L83.5373 55.912C84.24 56.0053 84.8066 56.0506 85.32 56.0506C92.6826 56.0506 98.6733 50.0586 98.6733 42.696C98.6733 36.84 94.924 31.724 89.3453 29.9626L87.0013 29.2213L86.0413 26.9573C81.8493 17.0574 72.196 10.6626 61.4453 10.6626C53.2013 10.6626 45.5466 14.3907 40.44 20.8907L38.3587 23.5426L35.072 22.7973C33.5733 22.4587 32.0853 22.2866 30.6453 22.2866C19.6253 22.2866 10.66 31.252 10.66 42.2747C10.66 53.2947 19.6253 62.2626 30.6453 62.2626C34.2333 62.2626 37.7773 61.2746 40.8933 59.4066L43.7933 57.668ZM61.4453 74.716C55.1026 74.716 48.9413 73.128 43.4453 70.0987C39.4306 71.952 35.064 72.9213 30.6453 72.9213C13.748 72.9213 0 59.172 0 42.2747C0 25.3747 13.748 11.6266 30.6453 11.6266C31.8093 11.6266 32.988 11.6987 34.1706 11.8387C41.2253 4.27867 50.9973 -5.71911e-06 61.4453 -5.71911e-06C75.6946 -5.71911e-06 88.5693 8.03462 94.8706 20.66C103.615 24.4293 109.333 33 109.333 42.696C109.333 55.9386 98.56 66.7093 85.32 66.7093C85.072 66.7093 84.8213 66.704 84.568 66.6947C77.9933 71.8853 69.8706 74.716 61.4453 74.716" fill="white"/>
<path d="M43.3145 69.9093L72.8691 105.797L61.5344 69.9093H43.3145Z" fill="white"/>
<path d="M79.1136 102.576L73.7803 92.0707L83.2909 87.2426L88.6242 97.748L79.1136 102.576Z" fill="white"/>
<path d="M40.6224 94.6573L35.2891 84.152L44.8011 79.324L50.1344 89.8293L40.6224 94.6573Z" fill="white"/>
<path d="M93.1917 91.9906L87.8584 81.4853L97.3704 76.6573L102.704 87.1626L93.1917 91.9906Z" fill="white"/>
</svg>
