<svg width="110" height="114" viewBox="0 0 110 114" fill="none" xmlns="http://www.w3.org/2000/svg">
<path d="M31.6484 102.845C30.5444 102.845 29.6484 101.949 29.6484 100.845V91.512C29.6484 90.408 30.5444 89.512 31.6484 89.512C32.7524 89.512 33.6484 90.408 33.6484 91.512V100.845C33.6484 101.949 32.7524 102.845 31.6484 102.845Z" fill="white"/>
<path d="M26.0771 99.84C25.4704 98.9187 25.7264 97.6773 26.6491 97.0707L34.4491 91.944C35.3718 91.3373 36.6117 91.596 37.2171 92.5173C37.8251 93.44 37.5677 94.68 36.6451 95.2866L28.8464 100.413C27.9238 101.02 26.6824 100.763 26.0771 99.84Z" fill="white"/>
<path d="M78.7852 102.845C77.6812 102.845 76.7852 101.949 76.7852 100.845V91.512C76.7852 90.408 77.6812 89.512 78.7852 89.512C79.8892 89.512 80.7852 90.408 80.7852 91.512V100.845C80.7852 101.949 79.8892 102.845 78.7852 102.845Z" fill="white"/>
<path d="M73.2145 99.84C72.6078 98.9187 72.8651 97.6773 73.7865 97.0707L81.5878 91.944C82.5091 91.3373 83.7505 91.596 84.3558 92.5173C84.9625 93.44 84.7065 94.68 83.7825 95.2866L75.9852 100.413C75.0612 101.02 73.8211 100.763 73.2145 99.84" fill="white"/>
<path d="M54.7852 113.349C53.6812 113.349 52.7852 112.453 52.7852 111.349V102.016C52.7852 100.912 53.6812 100.016 54.7852 100.016C55.8892 100.016 56.7852 100.912 56.7852 102.016V111.349C56.7852 112.453 55.8892 113.349 54.7852 113.349Z" fill="white"/>
<path d="M49.2145 110.344C48.6078 109.423 48.8651 108.181 49.7865 107.575L57.5878 102.448C58.5091 101.841 59.7505 102.1 60.3558 103.021C60.9625 103.944 60.7065 105.184 59.7825 105.791L51.9852 110.917C51.0612 111.524 49.8211 111.267 49.2145 110.344" fill="white"/>
<path d="M31.6484 81.5946C30.5444 81.5946 29.6484 80.6986 29.6484 79.5946V70.2613C29.6484 69.1573 30.5444 68.2613 31.6484 68.2613C32.7524 68.2613 33.6484 69.1573 33.6484 70.2613V79.5946C33.6484 80.6986 32.7524 81.5946 31.6484 81.5946Z" fill="white"/>
<path d="M26.0771 78.5893C25.4704 77.6666 25.7264 76.4266 26.6491 75.82L34.4491 70.6933C35.3718 70.0866 36.6117 70.344 37.2171 71.2667C37.8251 72.1893 37.5677 73.4293 36.6451 74.036L28.8464 79.1626C27.9238 79.7693 26.6824 79.5106 26.0771 78.5893" fill="white"/>
<path d="M78.7852 81.5946C77.6812 81.5946 76.7852 80.6986 76.7852 79.5946V70.2613C76.7852 69.1573 77.6812 68.2613 78.7852 68.2613C79.8892 68.2613 80.7852 69.1573 80.7852 70.2613V79.5946C80.7852 80.6986 79.8892 81.5946 78.7852 81.5946Z" fill="white"/>
<path d="M73.2145 78.5893C72.6078 77.6666 72.8651 76.4266 73.7865 75.82L81.5878 70.6933C82.5091 70.0866 83.7505 70.344 84.3558 71.2667C84.9625 72.1893 84.7065 73.4293 83.7825 74.036L75.9852 79.1626C75.0612 79.7693 73.8211 79.5106 73.2145 78.5893" fill="white"/>
<path d="M54.7852 92.0986C53.6812 92.0986 52.7852 91.2026 52.7852 90.0986V80.7653C52.7852 79.6613 53.6812 78.7653 54.7852 78.7653C55.8892 78.7653 56.7852 79.6613 56.7852 80.7653V90.0986C56.7852 91.2026 55.8892 92.0986 54.7852 92.0986Z" fill="white"/>
<path d="M49.2145 89.0932C48.6078 88.1706 48.8651 86.9306 49.7865 86.3239L57.5878 81.1972C58.5091 80.5906 59.7505 80.8479 60.3558 81.7706C60.9625 82.6932 60.7065 83.9332 59.7825 84.5399L51.9852 89.6652C51.0612 90.2732 49.8211 90.0146 49.2145 89.0932" fill="white"/>
<path d="M43.7933 57.668L46.6027 59.5519C50.9987 62.4973 56.1306 64.056 61.4453 64.056C68.036 64.056 74.3653 61.632 79.2706 57.228L81.1013 55.5866L83.5387 55.912C84.24 56.0053 84.8066 56.0506 85.3213 56.0506C92.6826 56.0506 98.6733 50.0586 98.6733 42.696C98.6733 36.84 94.9253 31.724 89.3453 29.9626L87 29.2213L86.0426 26.9573C81.8493 17.0573 72.196 10.6626 61.4453 10.6626C53.2026 10.6626 45.5466 14.3906 40.44 20.8906L38.3587 23.5426L35.072 22.7973C33.5747 22.4587 32.0853 22.2866 30.6467 22.2866C19.6253 22.2866 10.66 31.252 10.66 42.2733C10.66 53.2946 19.6253 62.2626 30.6467 62.2626C34.2347 62.2626 37.7773 61.2733 40.8933 59.4066L43.7933 57.668ZM61.4453 74.716C55.1026 74.716 48.9413 73.128 43.4453 70.0986C39.4306 71.952 35.064 72.9213 30.6467 72.9213C13.748 72.9213 0 59.172 0 42.2733C0 25.3746 13.748 11.6266 30.6467 11.6266C31.8107 11.6266 32.9893 11.6986 34.1706 11.8386C41.2253 4.2786 50.9973 -5.71911e-06 61.4453 -5.71911e-06C75.696 -5.71911e-06 88.5693 8.03462 94.872 20.66C103.615 24.4293 109.333 33 109.333 42.696C109.333 55.9386 98.5599 66.7093 85.3213 66.7093C85.072 66.7093 84.8226 66.704 84.568 66.6947C77.9933 71.8853 69.872 74.716 61.4453 74.716" fill="white"/>
<path d="M26.0771 92.516C25.4704 93.44 25.7264 94.6786 26.6491 95.2853L34.4491 100.413C35.3718 101.02 36.6117 100.763 37.2171 99.84C37.8251 98.916 37.5677 97.676 36.6451 97.0693L28.8464 91.944C27.9238 91.3373 26.6824 91.5947 26.0771 92.516" fill="white"/>
<path d="M73.2145 92.516C72.6078 93.44 72.8651 94.6786 73.7865 95.2853L81.5878 100.413C82.5091 101.02 83.7505 100.763 84.3558 99.84C84.9625 98.916 84.7065 97.676 83.7825 97.0693L75.9852 91.944C75.0612 91.3373 73.8211 91.5947 73.2145 92.516" fill="white"/>
<path d="M49.2145 103.02C48.6078 103.943 48.8651 105.183 49.7865 105.789L57.5878 110.917C58.5091 111.524 59.7505 111.267 60.3558 110.344C60.9625 109.42 60.7065 108.18 59.7825 107.573L51.9852 102.448C51.0612 101.841 49.8211 102.099 49.2145 103.02" fill="white"/>
<path d="M26.0771 71.2653C25.4704 72.188 25.7264 73.428 26.6491 74.0346L34.4491 79.1626C35.3718 79.7693 36.6117 79.5106 37.2171 78.5893C37.8251 77.664 37.5677 76.4253 36.6451 75.8186L28.8464 70.6933C27.9238 70.0866 26.6824 70.3426 26.0771 71.2653Z" fill="white"/>
<path d="M73.2145 71.2653C72.6078 72.188 72.8651 73.428 73.7865 74.0346L81.5878 79.1626C82.5091 79.7693 83.7505 79.5106 84.3558 78.5893C84.9625 77.664 84.7065 76.4253 83.7825 75.8186L75.9852 70.6933C75.0612 70.0866 73.8211 70.3426 73.2145 71.2653" fill="white"/>
<path d="M49.2145 81.7692C48.6078 82.6919 48.8651 83.9319 49.7865 84.5386L57.5878 89.6652C58.5091 90.2732 59.7505 90.0146 60.3558 89.0932C60.9625 88.1679 60.7065 86.9292 59.7825 86.3226L51.9852 81.1972C51.0612 80.5906 49.8211 80.8466 49.2145 81.7692" fill="white"/>
</svg>
