<svg width="108" height="116" viewBox="0 0 108 116" fill="none" xmlns="http://www.w3.org/2000/svg">
<circle cx="45.5" cy="70.5" r="42" stroke="black" stroke-width="7"/>
<path d="M83.8824 17L85.3673 15.6603L83.7927 13.915L82.3221 15.7487L83.8824 17ZM83.8824 17C85.3673 15.6603 85.3675 15.6605 85.3678 15.6609L85.3688 15.662L85.3722 15.6657L85.3844 15.6792L85.4301 15.7302C85.4699 15.7746 85.5281 15.8399 85.6036 15.9249C85.7546 16.0949 85.9746 16.3439 86.2537 16.6638C86.8118 17.3033 87.6069 18.2264 88.56 19.3663C90.4647 21.6441 93.0087 24.7976 95.557 28.2915C98.1 31.778 100.676 35.6431 102.626 39.3394C104.537 42.9634 106 46.7065 106 49.8658C106 61.5246 96.6112 71 85 71C73.3888 71 64 61.5246 64 49.8658C64 46.7625 65.2819 43.0531 66.9832 39.4235C68.7136 35.732 71.0023 31.8691 73.263 28.3821C75.5282 24.8883 77.7897 21.7345 79.4831 19.4562C80.3305 18.316 81.0374 17.3927 81.5337 16.7529C81.7819 16.433 81.9775 16.1838 82.1118 16.0137C82.1789 15.9286 82.2308 15.8633 82.2662 15.8188L82.3069 15.7678L82.3177 15.7542L82.3207 15.7505L82.3216 15.7494C82.3219 15.749 82.3221 15.7487 83.8824 17Z" fill="black" stroke="#FCBF9D" stroke-width="4"/>
<path fill-rule="evenodd" clip-rule="evenodd" d="M97 56.1966C94.5267 59.0373 90.8167 60.8432 86.6692 60.8432C79.2229 60.8432 73.1864 55.022 73.1864 47.8413C73.1864 46.1302 73.5292 44.4963 74.1521 43C72.1848 45.2596 71 48.174 71 51.3553C71 58.536 77.0365 64.3572 84.4828 64.3572C90.1548 64.3572 95.0088 60.9797 97 56.1966Z" fill="#FCBF9D"/>
<path d="M65.7059 4L66.8196 2.9952L65.6387 1.68624L64.5357 3.06156L65.7059 4ZM65.7059 4C66.8196 2.9952 66.8198 2.99538 66.82 2.99563L66.8207 2.99643L66.8231 2.99912L66.8318 3.00879L66.8644 3.0451C66.8927 3.07675 66.9342 3.12319 66.9879 3.18366C67.0953 3.30461 67.2518 3.48175 67.4503 3.70918C67.8471 4.16395 68.4124 4.82024 69.0901 5.63067C70.4441 7.25001 72.2528 9.49208 74.0648 11.9764C75.8728 14.4551 77.7059 17.2048 79.0934 19.8359C80.4522 22.4127 81.5 25.0869 81.5 27.352C81.5 35.679 74.7942 42.4474 66.5 42.4474C58.2058 42.4474 51.5 35.679 51.5 27.352C51.5 25.1288 52.4173 22.48 53.6271 19.899C54.8587 17.2715 56.487 14.5235 58.0943 12.0443C59.7049 9.56005 61.3128 7.31779 62.5167 5.69807C63.1192 4.88748 63.6218 4.23102 63.9747 3.77606C64.1512 3.54855 64.2903 3.37132 64.3859 3.25029C64.4337 3.18977 64.4705 3.14329 64.4958 3.11159L64.5248 3.07522L64.5325 3.06551L64.5347 3.06281L64.5353 3.062C64.5355 3.06175 64.5357 3.06156 65.7059 4Z" fill="black" stroke="#FCBF9D" stroke-width="3"/>
<path fill-rule="evenodd" clip-rule="evenodd" d="M75 31.4738C73.2877 33.5133 70.7192 34.8098 67.8479 34.8098C62.6927 34.8098 58.5136 30.6307 58.5136 25.4755C58.5136 24.2471 58.7509 23.0742 59.1821 22C57.8202 23.6222 57 25.7145 57 27.9983C57 33.1535 61.1791 37.3325 66.3343 37.3325C70.2611 37.3325 73.6215 34.9078 75 31.4738Z" fill="#FCBF9D"/>
<line x1="30" y1="84.7574" x2="57.7574" y2="57" stroke="black" stroke-width="6" stroke-linecap="round" stroke-linejoin="round"/>
<circle cx="32" cy="59" r="6.5" stroke="black" stroke-width="5"/>
<circle cx="57" cy="82" r="6.5" stroke="black" stroke-width="5"/>
</svg>
