<svg width="80" height="98" viewBox="0 0 80 98" fill="none" xmlns="http://www.w3.org/2000/svg">
<path d="M37.263 62.7237L39.0891 63.9474C41.9465 65.8628 45.2823 66.8759 48.736 66.8759C53.0208 66.8759 57.1357 65.3003 60.3233 62.4377L61.5132 61.3708L63.0975 61.5823C63.5534 61.6429 63.9217 61.6716 64.2554 61.6716C69.042 61.6716 72.935 57.7776 72.935 52.9919C72.935 49.1855 70.4988 45.8601 66.8718 44.7152L65.3482 44.2334L64.7251 42.7618C62.0003 36.3268 55.7248 32.1694 48.736 32.1694C43.3791 32.1694 38.4027 34.5934 35.0842 38.8184L33.7305 40.5422L31.5942 40.0578C30.6209 39.8376 29.6528 39.7258 28.7177 39.7258C21.5538 39.7258 15.7272 45.5533 15.7272 52.7171C15.7272 59.881 21.5538 65.7102 28.7177 65.7102C31.049 65.7102 33.3526 65.0671 35.378 63.8538L37.263 62.7237ZM48.736 73.804C44.615 73.804 40.6101 72.7727 37.036 70.8036C34.4282 72.0083 31.589 72.6384 28.7177 72.6384C17.7336 72.6384 8.79736 63.7013 8.79736 52.7171C8.79736 41.733 17.7336 32.7968 28.7177 32.7968C29.4743 32.7968 30.2404 32.8436 31.0083 32.9346C35.5938 28.0206 41.9465 25.2395 48.736 25.2395C57.9989 25.2395 66.3674 30.462 70.4642 38.6676C76.146 41.1186 79.864 46.6895 79.864 52.9919C79.864 61.5988 72.8622 68.6005 64.2554 68.6005C64.0942 68.6005 63.9321 68.5971 63.7674 68.591C59.4939 71.9641 54.2142 73.804 48.736 73.804" fill="white"/>
<path d="M35.8843 7.02207C35.8843 3.35087 32.7677 0.197941 32.4306 0.0939405C32.4271 0.0922072 32.4254 0.0896241 32.4219 0.0896241C32.421 0.0896241 32.4185 0.0904705 32.4176 0.0904705C32.4167 0.0904705 32.4141 0.0896241 32.4132 0.0896241C32.4106 0.0896241 32.4089 0.0922072 32.4054 0.0939405C32.0683 0.197941 28.9509 3.35087 28.9509 7.02207C28.9509 9.5484 30.9226 10.4835 32.4098 10.4887C32.4106 10.4887 32.4124 10.4896 32.4132 10.4896C32.415 10.4896 32.4167 10.4896 32.4176 10.4896C32.4193 10.4896 32.4202 10.4896 32.4219 10.4896C32.4236 10.4896 32.4254 10.4887 32.4271 10.4887C33.9134 10.4835 35.8843 9.5484 35.8843 7.02207Z" fill="white"/>
<path d="M7.28343 28.6904C3.61223 28.6904 0.458436 31.8061 0.355303 32.1441C0.353569 32.1467 0.350098 32.1493 0.350098 32.1519C0.350098 32.1537 0.351833 32.1554 0.351833 32.1571C0.351833 32.158 0.350098 32.1606 0.350098 32.1606C0.350098 32.164 0.353569 32.1658 0.355303 32.1684C0.458436 32.5064 3.61223 35.6238 7.28343 35.6238C9.8089 35.6238 10.7458 33.6513 10.7501 32.1658C10.7501 32.1641 10.7501 32.1623 10.7501 32.1606C10.7501 32.1597 10.7501 32.158 10.7501 32.1571C10.7501 32.1554 10.7501 32.1537 10.7501 32.1519C10.7501 32.1502 10.7501 32.1493 10.7501 32.1476C10.7458 30.6613 9.8089 28.6904 7.28343 28.6904Z" fill="white"/>
<path d="M52.6409 16.8345C55.2374 14.2397 55.2635 9.80581 55.0979 9.49294C55.0971 9.49034 55.0971 9.48689 55.0953 9.48516C55.0945 9.48429 55.0919 9.4834 55.0919 9.48253C55.0901 9.48167 55.0901 9.47906 55.0892 9.47906C55.0875 9.47646 55.0841 9.47648 55.0806 9.47648C54.7686 9.31008 50.3339 9.33694 47.7391 11.9326C45.9537 13.7188 46.6852 15.7737 47.733 16.8284C47.7339 16.8293 47.7339 16.831 47.7356 16.8327C47.7365 16.8336 47.7373 16.8345 47.7391 16.8354C47.7391 16.8371 47.7408 16.8379 47.7417 16.8388C47.7425 16.8397 47.7442 16.8397 47.746 16.8414C48.8007 17.8883 50.8556 18.6215 52.6409 16.8345Z" fill="white"/>
<path d="M17.0964 11.9327C14.5008 9.33789 10.066 9.31017 9.75491 9.47657C9.75144 9.47657 9.74797 9.47657 9.74624 9.4783C9.7445 9.48004 9.7445 9.48175 9.74277 9.48262C9.74277 9.48349 9.7393 9.48524 9.7393 9.48524C9.73756 9.48698 9.73758 9.49043 9.73671 9.49303C9.57205 9.8059 9.59717 14.2398 12.1928 16.8354C13.9799 18.6225 16.0348 17.8884 17.0895 16.8415C17.0912 16.8398 17.093 16.8398 17.0947 16.838L17.0964 16.8363C17.0982 16.8346 17.099 16.8337 17.0999 16.832C17.1016 16.8311 17.1017 16.8294 17.1025 16.8285C18.1495 15.7738 18.8818 13.7189 17.0964 11.9327" fill="white"/>
<path d="M33.5085 34.0708C40.6082 29.5382 44.4423 27.6445 48.0962 27.1306C45.9711 20.4954 39.758 15.6897 32.4165 15.6897C23.3225 15.6897 15.9507 23.0616 15.9507 32.1564C15.9507 34.7408 16.5625 37.1761 17.6233 39.3523C19.7016 36.9889 24.1831 33.966 33.5085 34.0708Z" fill="white"/>
<path d="M48.6164 80.5224C48.6164 82.4377 47.0642 83.9891 45.1498 83.9891C43.2353 83.9891 41.6831 82.4377 41.6831 80.5224C41.6831 78.6079 43.2353 77.0557 45.1498 77.0557C47.0642 77.0557 48.6164 78.6079 48.6164 80.5224Z" fill="white"/>
<path d="M33.5762 73.5891C33.5762 75.5045 32.024 77.0558 30.1095 77.0558C28.195 77.0558 26.6428 75.5045 26.6428 73.5891C26.6428 71.6747 28.195 70.1225 30.1095 70.1225C32.024 70.1225 33.5762 71.6747 33.5762 73.5891Z" fill="white"/>
<path d="M64.2164 73.5891C64.2164 75.5045 62.6642 77.0558 60.7497 77.0558C58.8353 77.0558 57.2831 75.5045 57.2831 73.5891C57.2831 71.6747 58.8353 70.1225 60.7497 70.1225C62.6642 70.1225 64.2164 71.6747 64.2164 73.5891Z" fill="white"/>
<path d="M48.6164 94.2833C48.6164 96.1987 47.0642 97.75 45.1498 97.75C43.2353 97.75 41.6831 96.1987 41.6831 94.2833C41.6831 92.3689 43.2353 90.8167 45.1498 90.8167C47.0642 90.8167 48.6164 92.3689 48.6164 94.2833Z" fill="white"/>
<path d="M33.5762 87.4557C33.5762 89.371 32.024 90.9224 30.1095 90.9224C28.195 90.9224 26.6428 89.371 26.6428 87.4557C26.6428 85.5412 28.195 83.989 30.1095 83.989C32.024 83.989 33.5762 85.5412 33.5762 87.4557Z" fill="white"/>
<path d="M64.2164 87.4557C64.2164 89.371 62.6642 90.9224 60.7497 90.9224C58.8353 90.9224 57.2831 89.371 57.2831 87.4557C57.2831 85.5412 58.8353 83.989 60.7497 83.989C62.6642 83.989 64.2164 85.5412 64.2164 87.4557Z" fill="white"/>
</svg>
