<svg width="113" height="91" viewBox="0 0 113 91" fill="none" xmlns="http://www.w3.org/2000/svg">
<path fill-rule="evenodd" clip-rule="evenodd" d="M45.5 84C62.9162 84 77.6315 72.4356 82.3858 56.5666L90.0034 55.0159C85.6284 75.5767 67.3653 91 45.5 91C20.371 91 0 70.629 0 45.5C0 20.371 20.371 0 45.5 0C57.2566 0 67.9717 4.45889 76.0466 11.7778L57.0978 8.77758C53.5647 7.66283 49.8116 7.04384 45.9201 7.00224C45.9037 7.00075 45.8874 7 45.871 7C45.858 7 45.8451 7.00047 45.8322 7.0014C45.7215 7.00047 45.6108 7 45.5 7C24.237 7 7 24.237 7 45.5C7 66.763 24.237 84 45.5 84Z" fill="black"/>
<line x1="28" y1="70" x2="28" y2="22" stroke="black" stroke-width="6" stroke-linecap="round" stroke-linejoin="round"/>
<path d="M46.184 13.0171L43.9231 12.7196V15V55.5385V57.9537L46.2959 57.5034L107.104 45.9649L107.762 45.8401L108.212 45.3442L106.731 44C108.212 45.3442 108.213 45.343 108.214 45.3419L108.216 45.3395L108.22 45.3345L108.23 45.3238L108.251 45.2994C108.267 45.2818 108.284 45.2614 108.303 45.2383C108.341 45.192 108.386 45.1347 108.437 45.0654C108.539 44.9268 108.665 44.7413 108.806 44.5032C109.089 44.0264 109.428 43.343 109.754 42.4092C110.406 40.5411 111 37.6888 111 33.5C111 29.3112 110.406 26.4589 109.754 24.5908C109.428 23.657 109.089 22.9736 108.806 22.4968C108.665 22.2587 108.539 22.0732 108.437 21.9346C108.386 21.8653 108.341 21.808 108.303 21.7617C108.284 21.7386 108.267 21.7182 108.251 21.7006L108.23 21.6762L108.22 21.6655L108.216 21.6605L108.214 21.6581C108.213 21.657 108.212 21.6558 106.731 23L108.212 21.6558L107.719 21.1127L106.992 21.0171L46.184 13.0171Z" fill="#FCBF9D" stroke="black" stroke-width="4"/>
<path d="M43.9231 58.0385C45.1341 58.0385 46.0102 57.3941 46.53 56.8446C47.0496 56.2951 47.4319 55.6228 47.7234 54.9859C48.3132 53.6969 48.7813 51.9897 49.1516 50.0768C49.9 46.2098 50.3462 40.9759 50.3462 35.2692C50.3462 29.5626 49.9 24.3286 49.1516 20.4617C48.7813 18.5488 48.3132 16.8415 47.7234 15.5526C47.4319 14.9156 47.0496 14.2433 46.53 13.6939C46.0102 13.1444 45.1341 12.5 43.9231 12.5C42.712 12.5 41.8359 13.1444 41.3162 13.6939C40.7965 14.2433 40.4142 14.9156 40.1227 15.5526C39.5329 16.8415 39.0648 18.5488 38.6946 20.4617C37.9461 24.3286 37.5 29.5626 37.5 35.2692C37.5 40.9759 37.9461 46.2098 38.6946 50.0768C39.0648 51.9897 39.5329 53.6969 40.1227 54.9859C40.4142 55.6228 40.7965 56.2951 41.3162 56.8446C41.8359 57.3941 42.712 58.0385 43.9231 58.0385Z" fill="#FCBF9D" stroke="black" stroke-width="5"/>
<path d="M63.1982 15.6344L59.2104 15.0805L61.1782 18.5929C61.8628 19.8149 62.4105 22.0417 62.7358 25.047C63.0531 27.979 63.1362 31.4084 63.044 34.8503C62.9519 38.2877 62.6862 41.6969 62.3184 44.5785C61.9443 47.5091 61.4825 49.7449 61.0472 50.9216L59.8656 54.1162L63.2311 53.5915L76.7987 51.4761L77.9041 51.3038L78.3358 50.2717C79.7336 46.9293 80.6202 41.1349 80.7472 35.2935C80.8742 29.4522 80.2538 23.1 78.3222 18.6966L77.8731 17.6728L76.7658 17.519L63.1982 15.6344Z" fill="#F12626" stroke="black" stroke-width="4"/>
<path d="M92.1774 20.0079L88.7364 19.7015L90.1841 22.8381C91.4614 25.6056 91.7515 30.1684 91.5028 34.831C91.259 39.4028 90.5259 43.6502 90.0597 45.5149L89.31 48.5139L92.3528 47.9686L97.7103 47.0086L103.068 46.0486L104.302 45.8275L104.641 44.6203C105.367 42.0319 105.68 37.392 105.542 33.0535C105.471 30.852 105.283 28.6442 104.948 26.7229C104.626 24.8716 104.128 23.0346 103.301 21.7649L102.77 20.9512L101.803 20.865L92.1774 20.0079Z" fill="#F12626" stroke="black" stroke-width="4"/>
</svg>
