<?xml version="1.0" encoding="UTF-8" standalone="no"?>
<!-- Created with Inkscape (http://www.inkscape.org/) -->

<svg
   xmlns:dc="http://purl.org/dc/elements/1.1/"
   xmlns:cc="http://creativecommons.org/ns#"
   xmlns:rdf="http://www.w3.org/1999/02/22-rdf-syntax-ns#"
   xmlns:svg="http://www.w3.org/2000/svg"
   xmlns="http://www.w3.org/2000/svg"
   xmlns:sodipodi="http://sodipodi.sourceforge.net/DTD/sodipodi-0.dtd"
   xmlns:inkscape="http://www.inkscape.org/namespaces/inkscape"
   version="1.1"
   id="svg815"
   width="512"
   height="512"
   viewBox="0 0 512 512"
   sodipodi:docname="wind.svg"
   inkscape:version="0.92.4 (5da689c313, 2019-01-14)">
  <metadata
     id="metadata821">
    <rdf:RDF>
      <cc:Work
         rdf:about="">
        <dc:format>image/svg+xml</dc:format>
        <dc:type
           rdf:resource="http://purl.org/dc/dcmitype/StillImage" />
        <dc:title></dc:title>
      </cc:Work>
    </rdf:RDF>
  </metadata>
  <defs
     id="defs819" />
  <sodipodi:namedview
     pagecolor="#ffffff"
     bordercolor="#666666"
     borderopacity="1"
     objecttolerance="10"
     gridtolerance="10"
     guidetolerance="10"
     inkscape:pageopacity="0"
     inkscape:pageshadow="2"
     inkscape:window-width="3123"
     inkscape:window-height="1771"
     id="namedview817"
     showgrid="false"
     inkscape:zoom="1.6171875"
     inkscape:cx="313.12731"
     inkscape:cy="395.84743"
     inkscape:window-x="-9"
     inkscape:window-y="-9"
     inkscape:window-maximized="1"
     inkscape:current-layer="svg815" />
  <g
     id="g929"
     transform="matrix(2.1152437,0,0,2.517385,-1254.1563,-39.099371)">
    <path
       sodipodi:nodetypes="accccccccccsa"
       inkscape:connector-curvature="0"
       id="path894"
       d="m 610.42432,27.547579 c -2.8092,-0.104573 -5.7166,1.00978 -7.25391,3.255962 l -0.85547,1.24945 -0.084,84.221819 c -0.0598,60.07553 0.002,84.54668 0.21679,85.35741 0.5536,2.08951 3.05802,4.16539 5.63282,4.66901 3.4403,0.67293 7.17635,-0.71088 8.84765,-3.27681 l 0.61133,-0.9383 0.13867,-70.12658 c 0.52108,-30.96454 0.3685,-63.617514 -0.0215,-93.725045 -0.0227,-6.173998 -0.0825,-6.491116 -1.54688,-8.191219 -1.37475,-1.596115 -3.50062,-2.414365 -5.68554,-2.495697 z"
       style="fill:#bf2323;fill-opacity:1;stroke:#000000;stroke-width:7.55905533;stroke-miterlimit:4;stroke-dasharray:none;stroke-opacity:1" />
    <path
       sodipodi:nodetypes="cccccccccccccccscccsccccccccccsccccccccccccccccccsccscccccscccssccccacc"
       inkscape:connector-curvature="0"
       id="path894-1"
       d="m 649.14301,23.788242 c -8.06675,3.55108 -10.23082,13.58352 -11.92774,20.99218 -0.7151,3.08005 -1.83592,10.16852 -2.26562,14.32032 -0.49161,20.49112 -3.77652,62.404868 14.18359,73.451168 0.726,-0.002 4.18395,-0.53511 7.68555,-1.18359 3.5017,-0.64848 7.98769,-1.46998 9.96679,-1.82618 4.7617,-0.85702 11.9686,-2.1709 17.4375,-3.17773 2.4359,-0.44846 10.65733,-1.93526 18.26953,-3.30469 7.6123,-1.3694 15.14955,-2.74312 16.74805,-3.05273 1.5986,-0.30959 6.08264,-1.1248 9.96485,-1.8125 3.88229,-0.68773 8.67705,-1.55929 10.65624,-1.93555 5.05931,-0.96177 22.91696,-4.19691 28.34376,-5.13477 2.49619,-0.4314 5.17602,-0.92216 5.95312,-1.09179 0.777,-0.16965 2.78233,-0.5447 4.45703,-0.83203 4.7946,-0.82259 12.11426,-2.14523 16.19336,-2.92579 2.0553,-0.39326 9.06588,-1.68018 15.58008,-2.86132 11.8391,-2.14663 11.8451,-2.14741 12.7832,-3.05664 0.5162,-0.500308 1.30491,-1.610628 1.75391,-2.466798 5.506,-10.49951 4.47382,-35.8065 -1.70508,-41.79492 -1.1505,-1.11504 -0.0324,-0.86137 -18.58594,-4.19727 -4.2628,-0.76645 -10.80125,-1.95508 -14.53125,-2.64062 -12.735,-2.34056 -15.64656,-2.87291 -24.91406,-4.56055 -5.1002,-0.92878 -10.02009,-1.80779 -10.93359,-1.95312 -0.9135,-0.1453 -3.218,-0.56438 -5.1211,-0.93165 -4.4946,-0.86749 -15.77846,-2.91499 -25.88086,-4.69531 -3.0449,-0.5366 -6.0981,-1.10373 -6.7832,-1.25976 -0.6851,-0.15607 -3.01995,-0.59397 -5.18945,-0.97461 -4.3465,-0.76258 -10.69066,-1.8972 -13.91016,-2.48633 -1.1419,-0.20896 -4.87723,-0.88865 -8.30273,-1.51172 -3.4255,-0.62304 -8.90639,-1.62382 -12.17969,-2.22461 -3.2732,-0.60078 -8.44338,-1.53512 -11.48828,-2.07617 -3.0449,-0.54105 -6.09615,-1.10207 -6.78125,-1.2461 -0.6851,-0.14398 -3.08704,-0.58887 -5.33594,-0.98828 -2.396,-0.42553 -3.42263,-0.59178 -4.14062,-0.56054 z m 4.14062,7.71484 c 3.83017,-0.19927 7.58508,7.61107 9.75586,20.40234 1.4048,8.27757 1.94336,15.67475 1.94336,26.84961 0.006,18.04052 -2.48595,33.649678 -6.68945,41.894528 -0.7513,1.47353 -2.67845,3.50948 -3.74805,3.95899 -1.0863,0.45658 -1.36712,0.45369 -2.44922,-0.0176 -4.3427,-1.89123 -8.21566,-14.30411 -9.72266,-31.164058 -0.5924,-6.62807 -0.66776,-22.98649 -0.13476,-29.06445 1.6825,-19.18778 5.81958,-31.90343 10.67578,-32.81446 0.12366,-0.0232 0.24559,-0.0385 0.36914,-0.0449 z m 46.12891,8.58203 c 0.262,-0.262 36.4909,7.08654 37.1875,7.54297 2.1439,1.40475 4.14309,7.3825 5.46679,16.34375 1.5239,10.31687 0.97702,25.91628 -1.24218,35.43359 -1.08,4.631858 -3.00029,8.760398 -4.42969,9.525398 -0.2967,0.15883 -1.81846,0.52939 -3.38086,0.82226 -1.5625,0.29289 -4.1476,0.79835 -5.74609,1.12305 -4.21471,0.85606 -19.73769,3.97128 -23.95899,4.80859 -1.9872,0.39421 -3.70054,0.7168 -3.80664,0.7168 -0.3185,0 -0.22151,-0.6762 0.36719,-2.58203 0.7794,-2.52338 2.09017,-8.8571 2.60937,-12.60547 2.6426,-19.077108 1.72547,-42.516158 -2.24023,-57.283198 -0.5442,-2.0261 -0.91517,-3.75641 -0.82617,-3.84571 z m 78.11718,13.22852 c 0.0714,-0.0714 2.77446,0.40356 6.00586,1.05664 3.2314,0.65307 9.23816,1.86078 13.34766,2.68359 8.8105,1.76405 9.0289,1.82891 9.5957,2.8125 2.3646,4.10335 3.38258,18.49138 2.01758,28.5 -0.7205,5.28234 -1.77214,8.64851 -2.83594,9.07422 -0.2594,0.10383 -6.62327,1.42328 -14.14257,2.931638 -7.5193,1.50836 -13.70986,2.74219 -13.75586,2.74219 -0.3517,0 -0.21605,-0.69232 0.46875,-2.39649 1.1133,-2.770848 2.3711,-7.819168 2.9414,-11.804678 0.6834,-4.7765 0.67468,-17.00404 -0.0156,-21.50586 -0.6651,-4.33728 -1.65048,-8.36002 -2.79688,-11.41211 -0.5273,-1.40367 -0.90208,-2.61014 -0.83008,-2.68164 z"
       style="fill:#bf2323;fill-opacity:1;stroke:#000000;stroke-width:7.55905533;stroke-miterlimit:4;stroke-dasharray:none;stroke-opacity:1" />
  </g>
</svg>
